<?xml version="1.0" encoding="iso-8859-1"?>
<!-- Generator: Adobe Illustrator 19.0.0, SVG Export Plug-In . SVG Version: 6.00 Build 0)  -->
<svg version="1.1" id="Layer_1" xmlns="http://www.w3.org/2000/svg" xmlns:xlink="http://www.w3.org/1999/xlink" x="0px" y="0px"
	 viewBox="0 0 480 480" style="enable-background:new 0 0 480 480;" xml:space="preserve">
<g>
	<g>
		<g>
			<path d="M368,0H48C34.768,0,24,10.768,24,24C10.768,24,0,34.768,0,48s10.768,24,24,24v16C10.768,88,0,98.768,0,112
				s10.768,24,24,24v16c-13.232,0-24,10.768-24,24s10.768,24,24,24v16c-13.232,0-24,10.768-24,24s10.768,24,24,24v16
				c-13.232,0-24,10.768-24,24s10.768,24,24,24v16c-13.232,0-24,10.768-24,24s10.768,24,24,24v16c-13.232,0-24,10.768-24,24
				s10.768,24,24,24c0,13.232,10.768,24,24,24h320c13.232,0,24-10.768,24-24V24C392,10.768,381.232,0,368,0z M16,48
				c0-4.408,3.584-8,8-8h16v16H24C19.584,56,16,52.408,16,48z M16,112c0-4.408,3.584-8,8-8h16v16H24C19.584,120,16,116.408,16,112z
				 M16,176c0-4.408,3.584-8,8-8h16v16H24C19.584,184,16,180.408,16,176z M16,240c0-4.408,3.584-8,8-8h16v16H24
				C19.584,248,16,244.408,16,240z M16,304c0-4.408,3.584-8,8-8h16v16H24C19.584,312,16,308.408,16,304z M16,368
				c0-4.408,3.584-8,8-8h16v16H24C19.584,376,16,372.408,16,368z M24,440c-4.416,0-8-3.592-8-8c0-4.408,3.584-8,8-8h16v16H24z
				 M376,456c0,4.408-3.584,8-8,8H48c-4.416,0-8-3.592-8-8h8c4.424,0,8-3.584,8-8v-32c0-4.416-3.576-8-8-8h-8v-16h8
				c4.424,0,8-3.584,8-8v-32c0-4.416-3.576-8-8-8h-8v-16h8c4.424,0,8-3.584,8-8v-32c0-4.416-3.576-8-8-8h-8v-16h8
				c4.424,0,8-3.584,8-8v-32c0-4.416-3.576-8-8-8h-8v-16h8c4.424,0,8-3.584,8-8v-32c0-4.416-3.576-8-8-8h-8v-16h8
				c4.424,0,8-3.584,8-8V96c0-4.416-3.576-8-8-8h-8V72h8c4.424,0,8-3.584,8-8V32c0-4.416-3.576-8-8-8h-8c0-4.408,3.584-8,8-8h320
				c4.416,0,8,3.592,8,8V456z"/>
			<path d="M328,48h-64c-4.424,0-8,3.584-8,8s3.576,8,8,8h64c4.424,0,8-3.584,8-8S332.424,48,328,48z"/>
			<path d="M328,408h-64c-4.424,0-8,3.584-8,8c0,4.416,3.576,8,8,8h64c4.424,0,8-3.584,8-8C336,411.584,332.424,408,328,408z"/>
			<path d="M112,408h-8c-4.424,0-8,3.584-8,8c0,4.416,3.576,8,8,8h8c4.424,0,8-3.584,8-8C120,411.584,116.424,408,112,408z"/>
			<path d="M152,408h-8c-4.424,0-8,3.584-8,8c0,4.416,3.576,8,8,8h8c4.424,0,8-3.584,8-8C160,411.584,156.424,408,152,408z"/>
			<path d="M192,408h-8c-4.424,0-8,3.584-8,8c0,4.416,3.576,8,8,8h8c4.424,0,8-3.584,8-8C200,411.584,196.424,408,192,408z"/>
			<path d="M232,408h-8c-4.424,0-8,3.584-8,8c0,4.416,3.576,8,8,8h8c4.424,0,8-3.584,8-8C240,411.584,236.424,408,232,408z"/>
			<path d="M328,96H104c-4.424,0-8,3.584-8,8s3.576,8,8,8h224c4.424,0,8-3.584,8-8S332.424,96,328,96z"/>
			<path d="M328,160H104c-4.424,0-8,3.584-8,8s3.576,8,8,8h224c4.424,0,8-3.584,8-8S332.424,160,328,160z"/>
			<path d="M328,224H104c-4.424,0-8,3.584-8,8s3.576,8,8,8h224c4.424,0,8-3.584,8-8S332.424,224,328,224z"/>
			<path d="M328,288H104c-4.424,0-8,3.584-8,8c0,4.416,3.576,8,8,8h224c4.424,0,8-3.584,8-8C336,291.584,332.424,288,328,288z"/>
			<path d="M328,352H104c-4.424,0-8,3.584-8,8c0,4.416,3.576,8,8,8h224c4.424,0,8-3.584,8-8C336,355.584,332.424,352,328,352z"/>
			<path d="M479.728,70.632c-0.048-0.288,0.04-0.584-0.048-0.864l-18.6-64C460.088,2.352,456.952,0,453.4,0h-10.2
				c-3.528,0-6.648,2.32-7.664,5.696l-19.2,64c-0.088,0.296,0,0.6-0.056,0.896C416.2,71.072,416,71.504,416,72v192v40v128v24
				c0,13.232,10.768,24,24,24h16c13.232,0,24-10.768,24-24v-24V304v-40V72C480,71.512,479.808,71.096,479.728,70.632z
				 M448.256,18.984L461.344,64h-26.592L448.256,18.984z M464,456c0,4.408-3.584,8-8,8h-16c-4.416,0-8-3.592-8-8v-16h32V456z
				 M464,424h-32V312h32V424z M464,296h-32v-24h32V296z M464,256h-32V80h32V256z"/>
			<circle cx="448.16" cy="103.128" r="7.128"/>
			<circle cx="448.16" cy="135.128" r="7.128"/>
			<circle cx="448.16" cy="167.128" r="7.128"/>
			<circle cx="448.16" cy="199.128" r="7.128"/>
			<circle cx="448.16" cy="231.128" r="7.128"/>
			<path d="M444,364c2.208,0,4-1.792,4-4v-24c0-2.208-1.792-4-4-4s-4,1.792-4,4v24C440,362.208,441.792,364,444,364z"/>
			<path d="M444,392v8c0,2.208,1.792,4,4,4s4-1.792,4-4v-8c0-2.208-1.792-4-4-4S444,389.792,444,392z"/>
		</g>
	</g>
</g>
<g>
</g>
<g>
</g>
<g>
</g>
<g>
</g>
<g>
</g>
<g>
</g>
<g>
</g>
<g>
</g>
<g>
</g>
<g>
</g>
<g>
</g>
<g>
</g>
<g>
</g>
<g>
</g>
<g>
</g>
</svg>
